<svg width="800" viewBox="0 0 800 620" xmlns="http://www.w3.org/2000/svg" role="img">
  <title>Eugenie-A Technical Skills</title>
  <desc>A visual breakdown of Eugenie-A's technical skills grouped by category</desc>
  <defs>
    <style>
      .sec  { font: 500 11px/1 'Segoe UI', sans-serif; fill: #8b949e; letter-spacing: 0.08em; text-transform: uppercase; }
      .name { font: 500 14px/1 'Segoe UI', sans-serif; fill: #e6edf3; }
      .cat  { font: 400 11px/1 'Segoe UI', sans-serif; fill: #8b949e; }
      .card { fill: #161b22; stroke: #30363d; stroke-width: 0.5; }
    </style>
  </defs>

  <rect width="800" height="620" fill="#0d1117" rx="16"/>

  <!-- LANGUAGES -->
  <text x="24" y="32" class="sec">Languages</text>

  <rect x="24" y="44" width="368" height="56" rx="12" class="card"/>
  <rect x="40" y="59" width="26" height="26" rx="7" fill="#1f2937"/>
  <path d="M53 65l-8 9.5h7l-.8 6.5 8-9.5h-7l.8-6.5z" fill="#f0c040"/>
  <text x="74" y="72" class="name">JavaScript</text>
  <text x="74" y="87" class="cat">Web / scripting</text>

  <rect x="408" y="44" width="368" height="56" rx="12" class="card"/>
  <rect x="424" y="59" width="26" height="26" rx="7" fill="#1a1f35"/>
  <path d="M430 65l8 4-8 4 8 4-8 4 8 4-8 4" stroke="#79b8ff" stroke-width="1.5" fill="none" stroke-linecap="round" stroke-linejoin="round"/>
  <text x="458" y="72" class="name">Python</text>
  <text x="458" y="87" class="cat">Data / scripting</text>

  <rect x="24" y="112" width="368" height="56" rx="12" class="card"/>
  <rect x="40" y="127" width="26" height="26" rx="7" fill="#2d1b1b"/>
  <path d="M53 130c3 0 6 2 7 5-2-1-5-1-7 1-3 2-4 5-3 8-2-2-3-5-2-8 0-4 3-6 5-6z" fill="#f97583"/>
  <text x="74" y="140" class="name">Swift / SwiftUI</text>
  <text x="74" y="155" class="cat">iOS development</text>

  <rect x="408" y="112" width="368" height="56" rx="12" class="card"/>
  <rect x="424" y="127" width="26" height="26" rx="7" fill="#1a1a35"/>
  <path d="M426 128h12l-12 13 12 13h-12l12-13z" fill="#b392f0"/>
  <text x="458" y="140" class="name">Kotlin</text>
  <text x="458" y="155" class="cat">Android development</text>

  <rect x="24" y="180" width="368" height="56" rx="12" class="card"/>
  <rect x="40" y="195" width="26" height="26" rx="7" fill="#1f2a1a"/>
  <rect x="44" y="198" width="18" height="14" rx="2" fill="none" stroke="#85e89d" stroke-width="1.2"/>
  <path d="M46 206l4 3-4 3M52 209h8" stroke="#85e89d" stroke-width="1.2" stroke-linecap="round"/>
  <text x="74" y="208" class="name">Java</text>
  <text x="74" y="223" class="cat">OOP / backend</text>

  <rect x="408" y="180" width="368" height="56" rx="12" class="card"/>
  <rect x="424" y="195" width="26" height="26" rx="7" fill="#1c1c2e"/>
  <rect x="427" y="198" width="20" height="14" rx="2" fill="none" stroke="#b392f0" stroke-width="1.2"/>
  <path d="M430 203h14M430 207h10" stroke="#b392f0" stroke-width="1.2" stroke-linecap="round"/>
  <text x="458" y="208" class="name">Visual Basic</text>
  <text x="458" y="223" class="cat">.NET / desktop</text>

  <!-- WEB -->
  <text x="24" y="264" class="sec">Web</text>

  <rect x="24" y="276" width="368" height="56" rx="12" class="card"/>
  <rect x="40" y="291" width="26" height="26" rx="7" fill="#2d1b1b"/>
  <path d="M44 293l1 13 7 2 7-2 1-13z" stroke="#f97583" stroke-width="1.2" fill="none"/>
  <text x="74" y="304" class="name">HTML5</text>
  <text x="74" y="319" class="cat">Markup / structure</text>

  <rect x="408" y="276" width="368" height="56" rx="12" class="card"/>
  <rect x="424" y="291" width="26" height="26" rx="7" fill="#1a1a35"/>
  <path d="M428 293l1 13 8 2 8-2 1-13z" stroke="#79b8ff" stroke-width="1.2" fill="none"/>
  <text x="458" y="304" class="name">CSS3</text>
  <text x="458" y="319" class="cat">Styling / animation</text>

  <!-- DESIGN -->
  <text x="24" y="360" class="sec">Design</text>

  <rect x="24" y="372" width="368" height="56" rx="12" class="card"/>
  <rect x="40" y="387" width="26" height="26" rx="7" fill="#2d1b2d"/>
  <circle cx="47" cy="394" r="4" stroke="#f778ba" stroke-width="1.2" fill="none"/>
  <circle cx="55" cy="394" r="4" stroke="#f778ba" stroke-width="1.2" fill="none"/>
  <circle cx="47" cy="402" r="4" stroke="#f778ba" stroke-width="1.2" fill="none"/>
  <rect x="51" y="398" width="8" height="8" rx="2" stroke="#f778ba" stroke-width="1.2" fill="none"/>
  <text x="74" y="400" class="name">Figma</text>
  <text x="74" y="415" class="cat">UI/UX / prototyping</text>

  <!-- DATA -->
  <text x="24" y="456" class="sec">Data &amp; Backend</text>

  <rect x="24" y="468" width="184" height="56" rx="12" class="card"/>
  <rect x="40" y="483" width="26" height="26" rx="7" fill="#1a2a1a"/>
  <ellipse cx="53" cy="489" rx="8" ry="3" stroke="#85e89d" stroke-width="1.2" fill="none"/>
  <path d="M45 489v6c0 1.7 3.6 3 8 3s8-1.3 8-3v-6" stroke="#85e89d" stroke-width="1.2" fill="none"/>
  <text x="74" y="495" class="name">SQL</text>
  <text x="74" y="510" class="cat">Databases</text>

  <rect x="216" y="468" width="184" height="56" rx="12" class="card"/>
  <rect x="232" y="483" width="26" height="26" rx="7" fill="#1f2937"/>
  <path d="M239 501l5-11 3 5 2-4 4 10z" fill="#f0c040"/>
  <text x="266" y="495" class="name">Firebase</text>
  <text x="266" y="510" class="cat">Realtime / auth</text>

  <rect x="408" y="468" width="184" height="56" rx="12" class="card"/>
  <rect x="424" y="483" width="26" height="26" rx="7" fill="#1a2a1a"/>
  <path d="M431 491h10l-5 10z" stroke="#85e89d" stroke-width="1.2" fill="none"/>
  <text x="458" y="495" class="name">Supabase</text>
  <text x="458" y="510" class="cat">Postgres / BaaS</text>

  <rect x="600" y="468" width="176" height="56" rx="12" class="card"/>
  <rect x="616" y="483" width="26" height="26" rx="7" fill="#1f2937"/>
  <circle cx="629" cy="494" r="3" fill="#f0c040"/>
  <circle cx="629" cy="502" r="3" fill="#f0c040" opacity=".5"/>
  <circle cx="629" cy="498" r="2" fill="#f0c040" opacity=".75"/>
  <text x="650" y="495" class="name">Jupyter</text>
  <text x="650" y="510" class="cat">Notebooks</text>

  <!-- TOOLS -->
  <text x="24" y="552" class="sec">Tools</text>

  <rect x="24" y="564" width="368" height="56" rx="12" class="card"/>
  <rect x="40" y="579" width="26" height="26" rx="7" fill="#2d1b1b"/>
  <circle cx="47" cy="584" r="2.5" fill="#f97583"/>
  <circle cx="59" cy="584" r="2.5" fill="#f97583"/>
  <circle cx="53" cy="596" r="2.5" fill="#f97583"/>
  <path d="M47 587v4a6 6 0 006 6m0 0a6 6 0 006-6v-4" stroke="#f97583" stroke-width="1.2" stroke-linecap="round" fill="none"/>
  <text x="74" y="592" class="name">Git / GitHub</text>
  <text x="74" y="607" class="cat">Version control</text>
</svg>
